<mxfile host="app.diagrams.net" modified="2023-04-21T11:07:55.168Z" agent="Mozilla/5.0 (Windows NT 10.0; Win64; x64) AppleWebKit/537.36 (KHTML, like Gecko) Chrome/112.0.0.0 Safari/537.36" etag="a8-y5GHNF56uHfyk4j0Z" version="21.2.0" type="device">
  <diagram name="Page-1" id="kkqJnGF9t5uek0j4ZxX3">
    <mxGraphModel dx="2333" dy="2" grid="0" gridSize="10" guides="1" tooltips="1" connect="1" arrows="1" fold="1" page="0" pageScale="1" pageWidth="850" pageHeight="1100" math="0" shadow="0">
      <root>
        <mxCell id="0" />
        <mxCell id="1" parent="0" />
        <mxCell id="pNLrPkEAwp26c2q4ZBaH-1" value="" style="edgeStyle=orthogonalEdgeStyle;rounded=0;orthogonalLoop=1;jettySize=auto;html=1;" edge="1" parent="1" source="pNLrPkEAwp26c2q4ZBaH-2" target="pNLrPkEAwp26c2q4ZBaH-4">
          <mxGeometry relative="1" as="geometry" />
        </mxCell>
        <mxCell id="pNLrPkEAwp26c2q4ZBaH-2" value="BẮT ĐẦU" style="ellipse;whiteSpace=wrap;html=1;" vertex="1" parent="1">
          <mxGeometry x="390" y="1206" width="130" height="86" as="geometry" />
        </mxCell>
        <mxCell id="pNLrPkEAwp26c2q4ZBaH-3" value="" style="edgeStyle=orthogonalEdgeStyle;rounded=0;orthogonalLoop=1;jettySize=auto;html=1;" edge="1" parent="1" source="pNLrPkEAwp26c2q4ZBaH-4" target="pNLrPkEAwp26c2q4ZBaH-9">
          <mxGeometry relative="1" as="geometry" />
        </mxCell>
        <mxCell id="pNLrPkEAwp26c2q4ZBaH-4" value="num_operand = 0&lt;br&gt;num_operator = 0" style="rounded=0;whiteSpace=wrap;html=1;" vertex="1" parent="1">
          <mxGeometry x="396" y="1322" width="120" height="60" as="geometry" />
        </mxCell>
        <mxCell id="pNLrPkEAwp26c2q4ZBaH-6" value="" style="edgeStyle=orthogonalEdgeStyle;rounded=0;orthogonalLoop=1;jettySize=auto;html=1;" edge="1" parent="1" source="pNLrPkEAwp26c2q4ZBaH-7" target="pNLrPkEAwp26c2q4ZBaH-14">
          <mxGeometry relative="1" as="geometry" />
        </mxCell>
        <mxCell id="pNLrPkEAwp26c2q4ZBaH-48" value="" style="edgeStyle=orthogonalEdgeStyle;rounded=0;orthogonalLoop=1;jettySize=auto;html=1;" edge="1" parent="1" source="pNLrPkEAwp26c2q4ZBaH-7" target="pNLrPkEAwp26c2q4ZBaH-10">
          <mxGeometry relative="1" as="geometry" />
        </mxCell>
        <mxCell id="pNLrPkEAwp26c2q4ZBaH-7" value="&lt;font style=&quot;font-size: 10px;&quot;&gt;KÝ TỰ BẤM LÀ TOÁN TỬ ?&lt;/font&gt;" style="rhombus;whiteSpace=wrap;html=1;" vertex="1" parent="1">
          <mxGeometry x="340" y="1513" width="230" height="120" as="geometry" />
        </mxCell>
        <mxCell id="pNLrPkEAwp26c2q4ZBaH-8" value="" style="edgeStyle=orthogonalEdgeStyle;rounded=0;orthogonalLoop=1;jettySize=auto;html=1;" edge="1" parent="1" source="pNLrPkEAwp26c2q4ZBaH-9" target="pNLrPkEAwp26c2q4ZBaH-7">
          <mxGeometry relative="1" as="geometry" />
        </mxCell>
        <mxCell id="pNLrPkEAwp26c2q4ZBaH-9" value="QUÉT PHÍM" style="rounded=0;whiteSpace=wrap;html=1;" vertex="1" parent="1">
          <mxGeometry x="396" y="1424" width="120" height="60" as="geometry" />
        </mxCell>
        <mxCell id="pNLrPkEAwp26c2q4ZBaH-10" value="num_operator ++" style="rounded=0;whiteSpace=wrap;html=1;" vertex="1" parent="1">
          <mxGeometry x="627" y="1543" width="120" height="60" as="geometry" />
        </mxCell>
        <mxCell id="pNLrPkEAwp26c2q4ZBaH-11" value="Đ" style="text;html=1;strokeColor=none;fillColor=none;align=center;verticalAlign=middle;whiteSpace=wrap;rounded=0;" vertex="1" parent="1">
          <mxGeometry x="576" y="1550" width="35" height="20" as="geometry" />
        </mxCell>
        <mxCell id="pNLrPkEAwp26c2q4ZBaH-12" value="" style="edgeStyle=orthogonalEdgeStyle;rounded=0;orthogonalLoop=1;jettySize=auto;html=1;" edge="1" parent="1" source="pNLrPkEAwp26c2q4ZBaH-14">
          <mxGeometry relative="1" as="geometry">
            <mxPoint x="456" y="1825" as="targetPoint" />
          </mxGeometry>
        </mxCell>
        <mxCell id="pNLrPkEAwp26c2q4ZBaH-13" value="" style="edgeStyle=orthogonalEdgeStyle;rounded=0;orthogonalLoop=1;jettySize=auto;html=1;" edge="1" parent="1" source="pNLrPkEAwp26c2q4ZBaH-14" target="pNLrPkEAwp26c2q4ZBaH-17">
          <mxGeometry relative="1" as="geometry" />
        </mxCell>
        <mxCell id="pNLrPkEAwp26c2q4ZBaH-14" value="KÝ TỰ BẤM != &#39;Z&#39;&lt;br&gt;&amp;amp;&amp;amp; (num_operand == 1 &amp;amp;&amp;amp; num_operator == 1 &amp;amp;&amp;amp; operand == &amp;amp;operand2)&amp;nbsp;&lt;br&gt;||&amp;nbsp;num_operand == 0" style="rhombus;whiteSpace=wrap;html=1;" vertex="1" parent="1">
          <mxGeometry x="341" y="1669" width="230" height="120" as="geometry" />
        </mxCell>
        <mxCell id="pNLrPkEAwp26c2q4ZBaH-15" value="" style="endArrow=classic;html=1;rounded=0;entryX=0.25;entryY=1;entryDx=0;entryDy=0;exitX=0.5;exitY=1;exitDx=0;exitDy=0;" edge="1" parent="1" source="pNLrPkEAwp26c2q4ZBaH-10" target="pNLrPkEAwp26c2q4ZBaH-16">
          <mxGeometry width="50" height="50" relative="1" as="geometry">
            <mxPoint x="690" y="1610" as="sourcePoint" />
            <mxPoint x="456" y="1673" as="targetPoint" />
            <Array as="points">
              <mxPoint x="687" y="1655" />
            </Array>
          </mxGeometry>
        </mxCell>
        <mxCell id="pNLrPkEAwp26c2q4ZBaH-16" value="S" style="text;html=1;strokeColor=none;fillColor=none;align=center;verticalAlign=middle;whiteSpace=wrap;rounded=0;" vertex="1" parent="1">
          <mxGeometry x="446" y="1635" width="35" height="20" as="geometry" />
        </mxCell>
        <mxCell id="pNLrPkEAwp26c2q4ZBaH-17" value="num_operand ++" style="rounded=0;whiteSpace=wrap;html=1;" vertex="1" parent="1">
          <mxGeometry x="626" y="1699" width="120" height="60" as="geometry" />
        </mxCell>
        <mxCell id="pNLrPkEAwp26c2q4ZBaH-42" value="" style="edgeStyle=orthogonalEdgeStyle;rounded=0;orthogonalLoop=1;jettySize=auto;html=1;" edge="1" parent="1" target="pNLrPkEAwp26c2q4ZBaH-22">
          <mxGeometry relative="1" as="geometry">
            <mxPoint x="456" y="1930" as="sourcePoint" />
          </mxGeometry>
        </mxCell>
        <mxCell id="pNLrPkEAwp26c2q4ZBaH-19" value="NẾU KÝ TỰ BẤM LÀ &#39;=&#39;" style="rhombus;whiteSpace=wrap;html=1;" vertex="1" parent="1">
          <mxGeometry x="340" y="1825" width="230" height="120" as="geometry" />
        </mxCell>
        <mxCell id="pNLrPkEAwp26c2q4ZBaH-44" value="" style="edgeStyle=orthogonalEdgeStyle;rounded=0;orthogonalLoop=1;jettySize=auto;html=1;" edge="1" parent="1" source="pNLrPkEAwp26c2q4ZBaH-22" target="pNLrPkEAwp26c2q4ZBaH-26">
          <mxGeometry relative="1" as="geometry" />
        </mxCell>
        <mxCell id="pNLrPkEAwp26c2q4ZBaH-22" value="NẾU num_operand == 0 &amp;amp;&amp;amp; num_operator == 0" style="rhombus;whiteSpace=wrap;html=1;" vertex="1" parent="1">
          <mxGeometry x="346" y="1979" width="220" height="120" as="geometry" />
        </mxCell>
        <mxCell id="pNLrPkEAwp26c2q4ZBaH-24" value="" style="edgeStyle=orthogonalEdgeStyle;rounded=0;orthogonalLoop=1;jettySize=auto;html=1;" edge="1" parent="1" source="pNLrPkEAwp26c2q4ZBaH-26" target="pNLrPkEAwp26c2q4ZBaH-27">
          <mxGeometry relative="1" as="geometry" />
        </mxCell>
        <mxCell id="pNLrPkEAwp26c2q4ZBaH-25" value="" style="edgeStyle=orthogonalEdgeStyle;rounded=0;orthogonalLoop=1;jettySize=auto;html=1;" edge="1" parent="1" source="pNLrPkEAwp26c2q4ZBaH-26" target="pNLrPkEAwp26c2q4ZBaH-29">
          <mxGeometry relative="1" as="geometry" />
        </mxCell>
        <mxCell id="pNLrPkEAwp26c2q4ZBaH-26" value="NẾU&amp;nbsp;!(num_operand == 1 &amp;amp;&amp;amp; num_operator == 0) &amp;amp;&amp;amp; !(num_operand == 2 &amp;amp;&amp;amp; num_operator == 1)" style="rhombus;whiteSpace=wrap;html=1;" vertex="1" parent="1">
          <mxGeometry x="346" y="2133" width="220" height="120" as="geometry" />
        </mxCell>
        <mxCell id="pNLrPkEAwp26c2q4ZBaH-27" value="HIỂN THỊ LỖI, XÓA MÀN HÌNH" style="rounded=0;whiteSpace=wrap;html=1;" vertex="1" parent="1">
          <mxGeometry x="624" y="2163" width="120" height="60" as="geometry" />
        </mxCell>
        <mxCell id="pNLrPkEAwp26c2q4ZBaH-62" value="" style="edgeStyle=orthogonalEdgeStyle;rounded=0;orthogonalLoop=1;jettySize=auto;html=1;" edge="1" parent="1" source="pNLrPkEAwp26c2q4ZBaH-29" target="pNLrPkEAwp26c2q4ZBaH-61">
          <mxGeometry relative="1" as="geometry" />
        </mxCell>
        <mxCell id="pNLrPkEAwp26c2q4ZBaH-29" value="THỰC HIỆN TÍNH TOÁN VÀ IN KẾT QUẢ, DELAY1S,&lt;br&gt;XÓA MÀN HÌNH" style="rounded=0;whiteSpace=wrap;html=1;" vertex="1" parent="1">
          <mxGeometry x="396" y="2282" width="120" height="60" as="geometry" />
        </mxCell>
        <mxCell id="pNLrPkEAwp26c2q4ZBaH-33" value="" style="endArrow=classic;html=1;rounded=0;exitX=0.5;exitY=1;exitDx=0;exitDy=0;" edge="1" parent="1" source="pNLrPkEAwp26c2q4ZBaH-17">
          <mxGeometry width="50" height="50" relative="1" as="geometry">
            <mxPoint x="586" y="1899" as="sourcePoint" />
            <mxPoint x="456" y="1809" as="targetPoint" />
            <Array as="points">
              <mxPoint x="686" y="1809" />
            </Array>
          </mxGeometry>
        </mxCell>
        <mxCell id="pNLrPkEAwp26c2q4ZBaH-34" value="Đ" style="text;html=1;strokeColor=none;fillColor=none;align=center;verticalAlign=middle;whiteSpace=wrap;rounded=0;" vertex="1" parent="1">
          <mxGeometry x="576" y="1709" width="35" height="20" as="geometry" />
        </mxCell>
        <mxCell id="pNLrPkEAwp26c2q4ZBaH-35" value="S" style="text;html=1;strokeColor=none;fillColor=none;align=center;verticalAlign=middle;whiteSpace=wrap;rounded=0;" vertex="1" parent="1">
          <mxGeometry x="426" y="1789" width="35" height="20" as="geometry" />
        </mxCell>
        <mxCell id="pNLrPkEAwp26c2q4ZBaH-36" value="S" style="text;html=1;strokeColor=none;fillColor=none;align=center;verticalAlign=middle;whiteSpace=wrap;rounded=0;" vertex="1" parent="1">
          <mxGeometry x="990" y="1701" width="35" height="20" as="geometry" />
        </mxCell>
        <mxCell id="pNLrPkEAwp26c2q4ZBaH-37" value="Đ" style="text;html=1;strokeColor=none;fillColor=none;align=center;verticalAlign=middle;whiteSpace=wrap;rounded=0;" vertex="1" parent="1">
          <mxGeometry x="430" y="1945" width="35" height="20" as="geometry" />
        </mxCell>
        <mxCell id="pNLrPkEAwp26c2q4ZBaH-39" value="S" style="text;html=1;strokeColor=none;fillColor=none;align=center;verticalAlign=middle;whiteSpace=wrap;rounded=0;" vertex="1" parent="1">
          <mxGeometry x="425" y="2099" width="35" height="20" as="geometry" />
        </mxCell>
        <mxCell id="pNLrPkEAwp26c2q4ZBaH-40" value="S" style="text;html=1;strokeColor=none;fillColor=none;align=center;verticalAlign=middle;whiteSpace=wrap;rounded=0;" vertex="1" parent="1">
          <mxGeometry x="430" y="2255" width="35" height="20" as="geometry" />
        </mxCell>
        <mxCell id="pNLrPkEAwp26c2q4ZBaH-41" value="Đ" style="text;html=1;strokeColor=none;fillColor=none;align=center;verticalAlign=middle;whiteSpace=wrap;rounded=0;" vertex="1" parent="1">
          <mxGeometry x="576" y="2173" width="35" height="20" as="geometry" />
        </mxCell>
        <mxCell id="pNLrPkEAwp26c2q4ZBaH-50" value="" style="edgeStyle=orthogonalEdgeStyle;rounded=0;orthogonalLoop=1;jettySize=auto;html=1;" edge="1" parent="1" target="pNLrPkEAwp26c2q4ZBaH-51">
          <mxGeometry relative="1" as="geometry">
            <mxPoint x="566" y="2039" as="sourcePoint" />
          </mxGeometry>
        </mxCell>
        <mxCell id="pNLrPkEAwp26c2q4ZBaH-51" value="XÓA TOÀN BỘ LCD" style="rounded=0;whiteSpace=wrap;html=1;" vertex="1" parent="1">
          <mxGeometry x="624" y="2009" width="120" height="60" as="geometry" />
        </mxCell>
        <mxCell id="pNLrPkEAwp26c2q4ZBaH-52" value="Đ" style="text;html=1;strokeColor=none;fillColor=none;align=center;verticalAlign=middle;whiteSpace=wrap;rounded=0;" vertex="1" parent="1">
          <mxGeometry x="566" y="2019" width="35" height="20" as="geometry" />
        </mxCell>
        <mxCell id="pNLrPkEAwp26c2q4ZBaH-56" value="" style="endArrow=classic;html=1;rounded=0;exitX=0;exitY=0.5;exitDx=0;exitDy=0;" edge="1" parent="1" source="pNLrPkEAwp26c2q4ZBaH-19">
          <mxGeometry width="50" height="50" relative="1" as="geometry">
            <mxPoint x="600" y="1270" as="sourcePoint" />
            <mxPoint x="455" y="1400" as="targetPoint" />
            <Array as="points">
              <mxPoint x="280" y="1885" />
              <mxPoint x="280" y="1400" />
            </Array>
          </mxGeometry>
        </mxCell>
        <mxCell id="pNLrPkEAwp26c2q4ZBaH-60" value="S" style="text;html=1;strokeColor=none;fillColor=none;align=center;verticalAlign=middle;whiteSpace=wrap;rounded=0;" vertex="1" parent="1">
          <mxGeometry x="290" y="1861" width="35" height="20" as="geometry" />
        </mxCell>
        <mxCell id="pNLrPkEAwp26c2q4ZBaH-61" value="KẾT THÚC" style="ellipse;whiteSpace=wrap;html=1;" vertex="1" parent="1">
          <mxGeometry x="395" y="2375" width="120" height="80" as="geometry" />
        </mxCell>
        <mxCell id="pNLrPkEAwp26c2q4ZBaH-64" value="" style="endArrow=none;html=1;rounded=0;exitX=1;exitY=0.5;exitDx=0;exitDy=0;" edge="1" parent="1" source="pNLrPkEAwp26c2q4ZBaH-51">
          <mxGeometry width="50" height="50" relative="1" as="geometry">
            <mxPoint x="600" y="2300" as="sourcePoint" />
            <mxPoint x="800" y="2200" as="targetPoint" />
            <Array as="points">
              <mxPoint x="800" y="2039" />
            </Array>
          </mxGeometry>
        </mxCell>
        <mxCell id="pNLrPkEAwp26c2q4ZBaH-66" value="" style="endArrow=classic;html=1;rounded=0;exitX=1;exitY=0.5;exitDx=0;exitDy=0;" edge="1" parent="1" source="pNLrPkEAwp26c2q4ZBaH-27">
          <mxGeometry width="50" height="50" relative="1" as="geometry">
            <mxPoint x="600" y="2300" as="sourcePoint" />
            <mxPoint x="460" y="2360" as="targetPoint" />
            <Array as="points">
              <mxPoint x="800" y="2193" />
              <mxPoint x="800" y="2360" />
            </Array>
          </mxGeometry>
        </mxCell>
      </root>
    </mxGraphModel>
  </diagram>
</mxfile>
